<svg xmlns="http://www.w3.org/2000/svg" id="svg0.4234283003045849" viewBox="0 0 1024 1024"><path d="M0 0 C337.92 0 675.84 0 1024 0 C1024 337.92 1024 675.84 1024 1024 C686.08 1024 348.16 1024 0 1024 C0 686.08 0 348.16 0 0 Z " transform="translate(0,0)" style="fill: #BBBDC0;"/><path d="M0 0 C1.3701846 -0.00330301 2.74036823 -0.00702949 4.11055064 -0.01114148 C7.86618068 -0.02112029 11.62179475 -0.02487162 15.37743616 -0.02753079 C19.43225432 -0.03144622 23.48705998 -0.04102379 27.54187012 -0.04974365 C37.33074839 -0.06947508 47.11962764 -0.07957091 56.90852082 -0.08847144 C61.52542762 -0.09286055 66.14233329 -0.09822581 70.7592392 -0.10346031 C86.11989224 -0.12047069 101.48054459 -0.13496237 116.8412056 -0.14220905 C120.82437389 -0.14411876 124.80754218 -0.14603912 128.79071045 -0.147995 C129.78063337 -0.14847874 130.7705563 -0.14896248 131.79047689 -0.14946087 C147.80775107 -0.15775186 163.82495034 -0.18307389 179.84219185 -0.21557567 C196.3101774 -0.24871786 212.77812499 -0.26666434 229.24614406 -0.26985329 C238.4827392 -0.27201197 247.71922516 -0.28066594 256.95578766 -0.30631447 C264.82620028 -0.32811966 272.69647721 -0.33602403 280.56691661 -0.32634769 C284.57540267 -0.32183097 288.58360932 -0.3235338 292.59205627 -0.34310913 C329.65832408 -0.5139239 359.16205411 6.58236866 386.32098389 32.76435852 C407.04598051 54.28769862 413.7754618 81.3246075 413.73985291 110.4278717 C413.741726 111.82115879 413.74402866 113.21444535 413.74671823 114.6077311 C413.75278098 118.39927718 413.75270923 122.19080102 413.75152385 125.98235083 C413.75131844 130.08610205 413.7568519 134.1898464 413.76158142 138.29359436 C413.76985784 146.31934272 413.77263488 154.34508372 413.7731938 162.37083599 C413.77367033 168.89927125 413.77573192 175.42770411 413.77889442 181.95613861 C413.78769232 200.49730223 413.79231509 219.03846009 413.79156395 237.57962582 C413.79150402 239.07630776 413.79150402 239.07630776 413.79144287 240.60322571 C413.79138155 242.1017512 413.79138155 242.1017512 413.79131899 243.63054994 C413.79091263 259.81689763 413.80048189 276.00322205 413.81458124 292.18956301 C413.82897021 308.84079103 413.83585005 325.49200772 413.83498746 342.14324212 C413.83465639 351.4791336 413.83736396 360.81500068 413.84816551 370.15088654 C413.8573037 378.09950472 413.8594186 386.04808742 413.85265609 393.9967086 C413.84940774 398.04541258 413.84927272 402.09404861 413.85800934 406.14274597 C413.93399764 443.77330129 409.58988115 475.2552396 382.43035889 503.42451477 C378.15709661 507.5441051 373.5801701 510.92527388 368.60614014 514.14717102 C367.35510498 514.96121399 367.35510498 514.96121399 366.07879639 515.79170227 C347.60484878 527.31967906 327.36723665 531.47480961 305.78773499 531.40786743 C304.44465667 531.41089614 303.10158008 531.41478919 301.75850648 531.41946 C298.10568565 531.42965648 294.45296389 531.42757973 290.80013525 531.4232794 C286.84564343 531.4207968 282.89117452 531.42984535 278.93669128 531.43731689 C271.203372 531.45002429 263.47008749 531.45186248 255.73675952 531.44951663 C249.44526748 531.44772859 243.15378594 531.44949351 236.86229515 531.45374107 C235.96448577 531.45433626 235.06667638 531.45493145 234.14166066 531.45554468 C232.31732176 531.45675652 230.49298287 531.45797066 228.66864397 531.45918705 C211.58381993 531.47004769 194.49901565 531.46790731 177.41419049 531.46180221 C161.81695732 531.4566364 146.21978666 531.46788225 130.62256584 531.48690043 C114.57362535 531.506318 98.52471437 531.51452784 82.47576207 531.51077718 C73.47908831 531.50887081 64.48246772 531.51129723 55.4858036 531.52549171 C47.82522135 531.5374567 40.16472498 531.53875356 32.50414143 531.52670155 C28.60312703 531.52084807 24.70226931 531.51961426 20.80126572 531.53170395 C-13.84717624 531.63157762 -41.53859401 527.07132796 -67.92120361 502.61201477 C-78.80001195 491.76757866 -86.40520701 479.5925224 -92.14385986 465.45967102 C-92.41351563 464.81497864 -92.68317139 464.17028625 -92.96099854 463.50605774 C-100.24541696 444.58228353 -99.98443431 425.10921402 -99.93141758 405.17836666 C-99.92435195 400.87019188 -99.94047841 396.5620894 -99.95341492 392.25393677 C-99.97493624 383.83994678 -99.97495906 375.42609265 -99.96678937 367.01208423 C-99.96046327 360.16865821 -99.96165018 353.3252715 -99.96806145 346.48184586 C-99.9689631 345.50407521 -99.96986476 344.52630457 -99.97079374 343.51890451 C-99.97264512 341.53197608 -99.97450768 339.54504766 -99.97638129 337.55811925 C-99.99291756 318.9734498 -99.98427528 300.38885651 -99.96739572 281.80419166 C-99.9526937 264.83248588 -99.96734167 247.86095706 -99.99616588 230.88927405 C-100.0256126 213.41970948 -100.03651736 195.95022643 -100.02698368 178.48063815 C-100.02596122 176.502047 -100.02496661 174.52345583 -100.02400017 172.54486465 C-100.02352378 171.57160238 -100.02304739 170.59834011 -100.02255656 169.59558504 C-100.02039988 162.76648986 -100.0301563 155.93747255 -100.04477119 149.10839462 C-100.06235342 140.77740759 -100.06209262 132.44664621 -100.03941954 124.11566781 C-100.02833219 119.8723832 -100.02498871 115.6294953 -100.04372025 111.38622856 C-100.17763287 78.65844572 -100.17763287 78.65844572 -94.39385986 65.14717102 C-93.96954461 64.15419699 -93.54522936 63.16122295 -93.10805607 62.1381588 C-92.0329499 59.75679842 -90.85376525 57.49086681 -89.58135986 55.20967102 C-89.14831543 54.41246643 -88.715271 53.61526184 -88.269104 52.79389954 C-84.88390592 46.70601804 -81.07333647 41.31679044 -76.39385986 36.14717102 C-75.38452393 34.92707336 -75.38452393 34.92707336 -74.35479736 33.68232727 C-55.48921788 11.42094348 -28.76435648 -0.00418809 0 0 Z " transform="translate(364.39385986328125,263.8528289794922)" style="fill: #F3F1ED;"/><path d="M0 0 C3.55828933 2.80350069 6.81136275 5.78650009 10 9 C10.886875 9.825 11.77375 10.65 12.6875 11.5 C17.2162366 16.39593146 21.24905741 21.06763139 23.88671875 27.2578125 C27.40978839 36.05967027 27.40978839 36.05967027 34.60546875 41.55078125 C38.00967105 42.22682291 41.45242658 42.45194578 44.90820312 42.72607422 C60.90214356 44.8205188 75.87913401 57.31560134 85.75 69.3125 C95.24403579 82.15077062 98.5161416 95.31172481 97 111 C94.84334811 121.13381315 88.49842534 130.8884713 81 138 C80.16300568 138.41994736 79.32601135 138.83989471 78.46365356 139.27256775 C75.82143521 140.76068087 75.82143521 140.76068087 75.21847534 143.3440094 C75.10622116 144.73135536 75.10622116 144.73135536 74.99169922 146.14672852 C74.89253204 147.20077377 74.79336487 148.25481903 74.69119263 149.34080505 C74.60489594 150.48775345 74.51859924 151.63470184 74.4296875 152.81640625 C74.20038909 155.28297655 73.96818843 157.74927841 73.73339844 160.21533203 C73.55810608 162.14013397 73.55810608 162.14013397 73.37927246 164.1038208 C72.40113133 174.15204076 70.97983065 184.15413031 69.63037109 194.15795898 C69.28999079 196.70357612 68.95679711 199.25016333 68.63037109 201.79760742 C68.14729624 205.56401446 67.64242725 209.32694685 67.1328125 213.08984375 C66.92315353 214.77290871 66.92315353 214.77290871 66.70925903 216.48997498 C64.95764421 229.0128164 60.53837688 240.77264519 50.57421875 249.00390625 C42.27956782 255.03294691 34.88536071 258.10813765 24.55038452 258.14717102 C23.24679993 258.15432632 21.94321533 258.16148163 20.60012817 258.16885376 C19.16229272 258.17169371 17.72445701 258.17440548 16.28662109 258.17700195 C14.76680345 258.18327108 13.24698732 258.18991828 11.72717285 258.19691467 C6.74260516 258.21790657 1.75803733 258.22831351 -3.2265625 258.23828125 C-4.946527 258.24233083 -6.66649135 258.24644781 -8.38645554 258.25063133 C-16.46971485 258.26967346 -24.55296509 258.28390572 -32.63624251 258.2922433 C-41.9477932 258.30200794 -51.25910569 258.3283113 -60.5705725 258.36874419 C-67.78012939 258.39896895 -74.98961824 258.41371825 -82.19923723 258.41702431 C-86.49934308 258.41936781 -90.79919418 258.42823633 -95.09923172 258.45348549 C-99.1491636 258.47688253 -103.19867509 258.48095318 -107.24865723 258.47072411 C-108.72760802 258.47023142 -110.20658035 258.47647214 -111.68546677 258.49028015 C-125.86289591 258.61514811 -136.19477487 255.40710494 -147 246 C-155.78323993 237.08920265 -157.67492307 224.85423587 -159.4375 212.9375 C-159.64406521 211.59646355 -159.85152453 210.25556457 -160.05981445 208.91479492 C-160.72363107 204.61236412 -161.36330869 200.30651584 -162 196 C-162.22587262 194.47883538 -162.45178446 192.95767658 -162.67773438 191.43652344 C-163.56049996 185.48292102 -164.4410071 179.52902874 -165.30053711 173.57202148 C-166.31704085 166.54075476 -167.38450106 159.52761838 -168.6315918 152.53295898 C-169.14880542 148.97690113 -169.13794043 145.5864511 -169 142 C-169.87011719 141.62875 -169.87011719 141.62875 -170.7578125 141.25 C-180.04321128 136.07347106 -186.09674785 124.24824499 -189.375 114.5625 C-193.31627195 100.49595201 -189.97959411 88.12920208 -183.1328125 75.4921875 C-174.40581603 60.52807696 -158.02194505 49.12700299 -141.74609375 43.96875 C-134.76476938 42.18838865 -128.18625531 41.61116454 -121 42 C-120.89945312 41.15050781 -120.79890625 40.30101562 -120.6953125 39.42578125 C-118.69034242 29.54736126 -112.48416492 20.52104715 -106 13 C-105.46890625 12.32582031 -104.9378125 11.65164063 -104.390625 10.95703125 C-78.99142809 -20.30817066 -31.77443345 -21.0300101 0 0 Z " transform="translate(565,381)" style="fill: #1D2329;"/><path d="M0 0 C1.18335938 0.89332031 1.18335938 0.89332031 2.390625 1.8046875 C3.11765625 2.33835937 3.8446875 2.87203125 4.59375 3.421875 C13.46496542 10.49853158 20.27132608 21.80834013 21.8515625 33.09765625 C22.10354987 36.00232148 22.29050524 38.89120251 22.390625 41.8046875 C23.00357422 41.7732666 23.61652344 41.7418457 24.24804688 41.70947266 C42.49844595 40.90069469 56.9905372 42.59100047 71.390625 54.8046875 C72.18082031 55.47242188 72.97101563 56.14015625 73.78515625 56.828125 C80.50805018 63.00471412 86.67979301 71.8012444 87.62890625 81.15234375 C87.89095889 90.73795342 85.61483465 97.49024184 79.515625 104.9296875 C63.57208621 121.52451464 38.86601076 124.5324565 17.390625 128.8046875 C16.10188477 129.07659912 16.10188477 129.07659912 14.78710938 129.35400391 C-1.49192017 132.61171305 -18.05796099 133.18510429 -34.609375 133.1171875 C-35.54103485 133.11536469 -36.4726947 133.11354187 -37.43258667 133.11166382 C-67.42711455 133.01347839 -98.24633362 130.15996552 -126.609375 119.8046875 C-127.68058594 119.41539062 -128.75179688 119.02609375 -129.85546875 118.625 C-142.67409524 113.62818509 -151.47969178 107.40931743 -158.546875 95.5546875 C-160.87097074 87.35199666 -160.58402268 78.99495543 -157.00390625 71.21484375 C-154.36134697 66.6477315 -151.15606932 62.69723537 -147.609375 58.8046875 C-147.11050781 58.25039063 -146.61164063 57.69609375 -146.09765625 57.125 C-133.6681667 45.0543671 -116.0782076 41.46110201 -99.5168457 41.65039062 C-97.21396829 41.69203021 -94.91176965 41.74216599 -92.609375 41.8046875 C-92.64289063 40.59425781 -92.67640625 39.38382812 -92.7109375 38.13671875 C-92.69514829 26.1711255 -84.9221482 13.44023606 -76.9375 4.9375 C-55.93972298 -14.29871855 -23.37558177 -16.30691782 0 0 Z " transform="translate(554.609375,398.1953125)" style="fill: #FCFCFC;"/><path d="M0 0 C0.93005859 0.25523437 0.93005859 0.25523437 1.87890625 0.515625 C4.91829581 1.34736479 7.95900795 2.17413795 11 3 C12.78857422 3.48726562 12.78857422 3.48726562 14.61328125 3.984375 C42.4658785 11.50428703 69.37781562 15.5391158 98.27246094 15.39111328 C101.99711707 15.37501246 105.72068859 15.39107819 109.4453125 15.41015625 C137.23978707 15.43434799 166.71953272 12.55811522 193.0390625 2.8828125 C196.18509356 1.94481379 198.7375294 1.93605218 202 2 C201.36558218 12.27736592 200.35131446 22.4669747 199.125 32.6875 C199.03629639 33.42957703 198.94759277 34.17165405 198.85620117 34.93621826 C196.72016961 52.73568305 196.72016961 52.73568305 195.5 61.125 C195.35908936 62.18593872 195.35908936 62.18593872 195.21533203 63.26831055 C194.1927303 69.85060239 191.75314533 76.25581431 186.375 80.4375 C185.78460937 80.91058594 185.19421875 81.38367188 184.5859375 81.87109375 C181.263077 84.23638115 178.90383951 84.13205917 174.85299683 84.14717102 C173.54078659 84.15432632 172.22857635 84.16148163 170.87660217 84.16885376 C169.41366601 84.17169421 167.95072959 84.17440592 166.48779297 84.17700195 C164.95369818 84.18326557 163.4196049 84.18991228 161.88551331 84.19691467 C157.70961322 84.21433756 153.53372459 84.22488066 149.35779715 84.2331202 C146.74825561 84.23826928 144.13871764 84.24434515 141.52917862 84.25063133 C133.36315512 84.26968988 125.19714068 84.28391772 117.0310992 84.2922433 C107.60798866 84.30200907 98.18511344 84.32830847 88.7620858 84.36874419 C81.47790227 84.39892747 74.19378609 84.4137144 66.90954125 84.41702431 C62.55974466 84.41937293 58.21019926 84.42830817 53.86046982 84.45348549 C49.76462481 84.47680904 45.66919558 84.48098239 41.57330132 84.47072411 C40.07374245 84.47022962 38.57416283 84.47652441 37.07466698 84.49028015 C29.15627567 84.55882744 22.7856107 84.49497321 16 80 C13.9765625 77.921875 13.9765625 77.921875 12.625 75.75 C12.16351563 75.04359375 11.70203125 74.3371875 11.2265625 73.609375 C8.38133507 67.55647078 7.59711725 60.89905594 6.81640625 54.3203125 C6.71537094 53.50867645 6.61433563 52.69704041 6.51023865 51.86080933 C6.18966075 49.28275606 5.87542105 46.70399299 5.5625 44.125 C5.15172179 40.75202212 4.73690903 37.37959233 4.31640625 34.0078125 C4.16167343 32.76393768 4.16167343 32.76393768 4.0038147 31.49493408 C3.16625314 24.93114397 2.12280336 18.41326339 0.93641663 11.90359497 C0.2232467 7.88239231 -0.13717746 4.08332917 0 0 Z " transform="translate(417,534)" style="fill: #FCFCFB;"/><path d="M0 0 C0.96189938 -0.00297112 1.92379876 -0.00594224 2.9148466 -0.0090034 C6.15838357 -0.01771875 9.40188375 -0.01920104 12.64543152 -0.02069092 C14.96270833 -0.02531708 17.27998437 -0.03034147 19.59725952 -0.03573608 C25.90719264 -0.04888141 32.21711511 -0.05530918 38.52705979 -0.05974674 C42.46593447 -0.06267399 46.40480622 -0.06677813 50.34367943 -0.07125092 C61.24598617 -0.08336286 72.14828968 -0.09374391 83.05060291 -0.09712601 C83.74863112 -0.09734557 84.44665932 -0.09756514 85.16583989 -0.09779136 C86.21541123 -0.09811878 86.21541123 -0.09811878 87.28618604 -0.09845281 C88.70411162 -0.09889628 90.12203719 -0.09934284 91.53996277 -0.09979248 C92.2433053 -0.10001391 92.94664783 -0.10023534 93.67130377 -0.10046348 C105.06831448 -0.10441159 116.46526126 -0.12186534 127.86224727 -0.145152 C139.55909674 -0.16885872 151.25591096 -0.1810695 162.95278472 -0.18249393 C169.52186274 -0.18354386 176.09085063 -0.18949169 182.65990639 -0.20731354 C188.83797624 -0.22374798 195.01588776 -0.22597223 201.19397163 -0.21717453 C203.46397067 -0.21640167 205.73397806 -0.22077939 208.00395584 -0.23063278 C211.09828671 -0.24327873 214.19205059 -0.23751537 217.28637695 -0.22705078 C218.1887123 -0.23510719 219.09104766 -0.24316359 220.0207265 -0.25146413 C224.76855176 -0.21380487 227.99673199 0.0135197 231.83366394 3.14044189 C233.36581282 6.20473965 233.06304942 8.75700609 232.83366394 12.14044189 C231.15069943 15.84296382 229.38127812 18.15945173 225.83366394 20.14044189 C222.70090223 20.59554233 219.58779763 20.55349747 216.42681885 20.53485107 C215.46321062 20.54094218 214.49960239 20.54703328 213.50679392 20.55330896 C210.26935891 20.56999319 207.03231488 20.56515537 203.79484558 20.56036377 C201.4772704 20.56770091 199.15969888 20.5762861 196.84213257 20.58602905 C190.54054956 20.60829036 184.23909714 20.61117344 177.93748021 20.60928154 C172.68126967 20.60916206 167.42508702 20.617717 162.16888422 20.62605906 C149.0620919 20.64641094 135.95537513 20.64743708 122.84857249 20.64025193 C111.464559 20.63467569 100.0807705 20.65550487 88.6968096 20.6886124 C77.00891778 20.72234016 65.32114368 20.73704414 53.63320249 20.73289537 C47.07081049 20.73082421 40.50864255 20.73636403 33.94629097 20.76078796 C27.7762946 20.78299215 21.60676768 20.78122964 15.43676949 20.76086044 C13.16999449 20.75743927 10.90318828 20.76258678 8.63645554 20.77684402 C5.54624843 20.79494228 2.45764989 20.7823568 -0.63250732 20.76190186 C-1.53347844 20.7744197 -2.43444955 20.78693755 -3.36272281 20.79983473 C-7.82645344 20.73631283 -9.59481552 20.5952372 -13.19970036 17.72660065 C-16.28832477 13.66500803 -16.68920591 11.2819954 -16.16633606 6.14044189 C-11.12810351 0.04152881 -7.53266521 -0.00718011 0 0 Z " transform="translate(415.1663360595703,682.8595581054688)" style="fill: #191F25;"/><path d="M0 0 C107.25 0 214.5 0 325 0 C320.64210274 2.17894863 317.44246173 2.31224264 312.71606445 2.3347168 C311.4633374 2.35219467 311.4633374 2.35219467 310.18530273 2.37002563 C307.41131552 2.40610793 304.63741877 2.42795326 301.86328125 2.44921875 C299.9078042 2.47051778 297.95233435 2.49248711 295.99687195 2.51509094 C291.87514669 2.56059109 287.75342967 2.59930976 283.6315918 2.63305664 C278.45217724 2.67578087 273.27304957 2.7327405 268.09383106 2.79447556 C248.59267301 3.0227785 229.14032619 3.10770055 209.64932251 2.38301086 C190.57568466 1.71031586 171.48792232 1.84811699 152.40494156 1.87163162 C149.14889628 1.87504041 145.89285725 1.87617591 142.6368103 1.87667847 C115.93020018 1.8826211 89.23090423 1.93525024 62.53393555 2.73193359 C51.37609139 3.04805752 40.33996815 2.80165767 29.19165039 2.24243164 C23.14615008 1.94340836 17.11454304 1.88142262 11.0625 1.9375 C9.57266602 1.94426758 9.57266602 1.94426758 8.05273438 1.95117188 C5.70174431 1.96252931 3.35091625 1.978637 1 2 C0.67 1.34 0.34 0.68 0 0 Z " transform="translate(360,795)" style="fill: #86878E;"/><path d="M0 0 C0.99 0.495 0.99 0.495 2 1 C4.03887946 13.23327676 3.11924872 26.03456043 2.2265625 38.328125 C1.2052532 47.38082592 1.2052532 47.38082592 3 56 C2.90802303 57.85071603 2.75083475 59.6982186 2.56860352 61.54223633 C1.6796028 72.78831393 1.87680502 84.05027269 1.90234375 95.32421875 C1.9042124 97.76324942 1.90563419 100.20228047 1.90663147 102.64131165 C1.91042471 109.02030498 1.9202252 115.39927505 1.93133545 121.77825928 C1.94160649 128.29162279 1.94614446 134.80499008 1.95117188 141.31835938 C1.96138192 153.52959948 1.97713634 165.7408244 1.99720669 177.95205212 C2.06951791 230.96782816 2 283.98416847 2 337 C1.34 337.33 0.68 337.66 0 338 C0 226.46 0 114.92 0 0 Z " transform="translate(778,362)" style="fill: #8C8F93;"/><path d="M0 0 C1.98 0.495 1.98 0.495 4 1 C2.25 4.875 2.25 4.875 0 6 C-1.98920208 6.09398504 -3.98163253 6.12190578 -5.97305298 6.12025452 C-7.88298286 6.12231651 -7.88298286 6.12231651 -9.83149719 6.12442017 C-11.250458 6.12088078 -12.66941857 6.11724597 -14.08837891 6.11352539 C-15.5763397 6.11324345 -17.06430064 6.1134014 -18.55226135 6.1139679 C-22.59954662 6.11425558 -26.64680243 6.10836345 -30.69408083 6.10139394 C-34.92083876 6.09515567 -39.14759731 6.09455623 -43.37435913 6.09336853 C-51.38184927 6.09025662 -59.3893258 6.0820451 -67.39680994 6.07201904 C-76.51155407 6.06085358 -85.62629883 6.05534636 -94.7410481 6.05032361 C-113.49403979 6.03986238 -132.2470188 6.02226563 -151 6 C-151 5.67 -151 5.34 -151 5 C-101.5 4.67 -52 4.34 -1 4 C-0.67 2.68 -0.34 1.36 0 0 Z " transform="translate(641,697)" style="fill: #0D1813;"/><path d="M0 0 C0.66 0.33 1.32 0.66 2 1 C1.25 4.375 1.25 4.375 0 8 C-1.33333333 8.66666667 -2.66666667 9.33333333 -4 10 C-4.268125 11.0725 -4.53625 12.145 -4.8125 13.25 C-6.35675149 18.12658366 -8.97042599 20.05862646 -13 23 C-10.79061334 18.29304581 -7.97408566 13.92541251 -5.27734375 9.48828125 C-3.39528391 6.37636053 -1.54743496 3.29670926 0 0 Z " transform="translate(769,734)" style="fill: #7E8087;"/><path d="M0 0 C0 0.66 0 1.32 0 2 C-0.99 2 -1.98 2 -3 2 C-3 2.66 -3 3.32 -3 4 C-4.32 4 -5.64 4 -7 4 C-7.0825 4.61875 -7.165 5.2375 -7.25 5.875 C-8 8 -8 8 -10.0625 9.25 C-10.701875 9.4975 -11.34125 9.745 -12 10 C-12.99 9.01 -13.98 8.02 -15 7 C-13.20856793 6.0204042 -11.41684696 5.0413367 -9.625 4.0625 C-8.62726563 3.51722656 -7.62953125 2.97195313 -6.6015625 2.41015625 C-2.15512465 0 -2.15512465 0 0 0 Z " transform="translate(499,391)" style="fill: #E9E5E0;"/><path d="M0 0 C0.66 0.33 1.32 0.66 2 1 C-1.05354755 5.58032132 -4.73028493 8.41496851 -10 10 C-12.25 9.6015625 -12.25 9.6015625 -14 9 C-13.07316406 8.43410156 -12.14632812 7.86820313 -11.19140625 7.28515625 C-9.98172588 6.54434424 -8.77209291 5.80345482 -7.5625 5.0625 C-6.95083984 4.68931641 -6.33917969 4.31613281 -5.70898438 3.93164062 C-2.68972694 2.18538519 -2.68972694 2.18538519 0 0 Z " transform="translate(737,774)" style="fill: #7A7F82;"/><path d="M0 0 C0 1.98 0 3.96 0 6 C-0.33 6 -0.66 6 -1 6 C-1 4.35 -1 2.7 -1 1 C-3.97 3.475 -3.97 3.475 -7 6 C-7.66 5.67 -8.32 5.34 -9 5 C-9 4.34 -9 3.68 -9 3 C-9.99 2.67 -10.98 2.34 -12 2 C-7.82262526 0.40861915 -4.46839215 -0.21278058 0 0 Z " transform="translate(619,536)" style="fill: #DCD9D9;"/><path d="M0 0 C-2.86690826 3.29163541 -4.68175817 4.43181029 -9 5 C-9.99 5.495 -9.99 5.495 -11 6 C-11.99 5.34 -12.98 4.68 -14 4 C-12.23494565 3.13395466 -10.46271926 2.28251358 -8.6875 1.4375 C-7.70136719 0.96183594 -6.71523438 0.48617188 -5.69921875 -0.00390625 C-3 -1 -3 -1 0 0 Z " transform="translate(433,444)" style="fill: #EAE6E2;"/><path d="M0 0 C1.56393356 3.97376829 0.36145292 6.81377903 -0.9375 10.75 C-1.50791016 12.50570312 -1.50791016 12.50570312 -2.08984375 14.296875 C-2.39019531 15.18890625 -2.69054687 16.0809375 -3 17 C-2.34 17.33 -1.68 17.66 -1 18 C-2.98 18.99 -2.98 18.99 -5 20 C-4.566875 18.081875 -4.566875 18.081875 -4.125 16.125 C-3.14708854 11.75560835 -2.28667394 7.36995633 -1.46484375 2.96875 C-1 1 -1 1 0 0 Z " transform="translate(777,709)" style="fill: #83868C;"/><path d="M0 0 C-0.99 1.65 -1.98 3.3 -3 5 C-5.97 4.67 -8.94 4.34 -12 4 C-7.47239812 0.98159875 -5.47631692 -0.24339186 0 0 Z " transform="translate(615,633)" style="fill: #E9E3E2;"/><path d="M0 0 C1.32 0.33 2.64 0.66 4 1 C0.45960866 3.9156164 -3.1626772 6.50127818 -7 9 C-7.33 7.68 -7.66 6.36 -8 5 C-7.05125 4.731875 -6.1025 4.46375 -5.125 4.1875 C-1.74732727 3.25013412 -1.74732727 3.25013412 0 0 Z " transform="translate(311,276)" style="fill: #C5CDC6;"/><path d="M0 0 C-1.49097658 3.7952131 -3.75700849 5.61042731 -7 8 C-7.66 7.67 -8.32 7.34 -9 7 C-4.38297872 0 -4.38297872 0 0 0 Z " transform="translate(303,284)" style="fill: #C6C8C6;"/><path d="M0 0 C1.32 0.33 2.64 0.66 4 1 C3.1875 2.9375 3.1875 2.9375 2 5 C-0.99531539 5.99843846 -2.17255732 6.00732761 -5.1875 5.5625 C-6.445625 5.376875 -7.70375 5.19125 -9 5 C-9 4.67 -9 4.34 -9 4 C-6.36 4 -3.72 4 -1 4 C-0.67 2.68 -0.34 1.36 0 0 Z " transform="translate(641,697)" style="fill: #141E19;"/><path d="M0 0 C0.99 0.33 1.98 0.66 3 1 C3 1.66 3 2.32 3 3 C2.4225 3.2475 1.845 3.495 1.25 3.75 C-1.3002997 5.16683317 -3.01785701 6.87627537 -5 9 C-5.66 8.67 -6.32 8.34 -7 8 C-4.69 5.36 -2.38 2.72 0 0 Z " transform="translate(480,401)" style="fill: #DBDBD1;"/><path d="M0 0 C-1.23944276 0.86941494 -2.49207059 1.72005457 -3.75 2.5625 C-4.79414062 3.27599609 -4.79414062 3.27599609 -5.859375 4.00390625 C-8 5 -8 5 -10.265625 4.65234375 C-10.83796875 4.43707031 -11.4103125 4.22179687 -12 4 C-10.56988027 3.13353333 -9.13059381 2.28218171 -7.6875 1.4375 C-6.88699219 0.96183594 -6.08648438 0.48617187 -5.26171875 -0.00390625 C-3 -1 -3 -1 0 0 Z " transform="translate(723,785)" style="fill: #808689;"/><path d="M0 0 C3.7952131 1.49097658 5.61042731 3.75700849 8 7 C5 7 5 7 2.3125 4.625 C0 2 0 2 0 0 Z " transform="translate(626,452)" style="fill: #2A372A;"/><path d="M0 0 C-3.85756507 2.15305957 -6.55129785 3.39253254 -11 3 C-10 1 -10 1 -6.625 -0.1875 C-3 -1 -3 -1 0 0 Z " transform="translate(709,791)" style="fill: #7F8287;"/><path d="M0 0 C0.33 0.66 0.66 1.32 1 2 C0.0625 4.625 0.0625 4.625 -1 7 C-2.32 6.67 -3.64 6.34 -5 6 C-3.35 4.02 -1.7 2.04 0 0 Z " transform="translate(755,757)" style="fill: #7D7F87;"/><path d="M0 0 C0.33 0.66 0.66 1.32 1 2 C-0.4375 4.625 -0.4375 4.625 -2 7 C-2.99 6.34 -3.98 5.68 -5 5 C-3.35 3.35 -1.7 1.7 0 0 Z " transform="translate(409,455)" style="fill: #E2E0DC;"/></svg>