<?xml version="1.0" standalone="no"?>
<!DOCTYPE svg PUBLIC "-//W3C//DTD SVG 20010904//EN"
 "http://www.w3.org/TR/2001/REC-SVG-20010904/DTD/svg10.dtd">
<svg version="1.0" xmlns="http://www.w3.org/2000/svg"
 width="200.000000pt" height="200.000000pt" viewBox="0 0 200.000000 200.000000"
 preserveAspectRatio="xMidYMid meet">

<g transform="translate(0.000000,200.000000) scale(0.100000,-0.100000)"
fill="#000000" stroke="none">
<path d="M833 1767 c-121 -120 -133 -136 -133 -168 0 -46 37 -82 81 -81 25 1
45 13 86 54 l53 52 0 -192 c0 -191 0 -193 25 -217 32 -33 78 -33 110 0 25 24
25 26 25 217 l0 192 53 -51 c49 -48 67 -57 110 -54 30 2 57 38 57 78 0 34 -10
47 -133 170 -176 176 -158 176 -334 0z"/>
<path d="M283 1329 c-63 -24 -128 -85 -156 -147 -21 -45 -22 -62 -25 -435 -3
-465 -3 -468 87 -558 93 -93 59 -89 811 -89 752 0 718 -4 811 89 90 90 90 93
87 558 -3 373 -4 390 -25 435 -29 63 -93 123 -159 148 -47 17 -78 20 -210 20
-151 0 -156 -1 -179 -25 -31 -30 -32 -73 -5 -108 20 -25 23 -26 174 -29 138
-3 158 -5 183 -24 63 -46 64 -52 61 -451 -3 -348 -4 -363 -24 -390 -48 -65
-24 -63 -714 -63 -690 0 -666 -2 -714 63 -20 27 -21 42 -24 390 -2 330 -1 365
15 396 35 68 56 75 230 81 148 5 156 6 174 29 26 32 24 77 -6 106 -24 24 -27
25 -182 24 -133 0 -166 -3 -210 -20z"/>
<path d="M893 1032 c-156 -56 -241 -184 -231 -346 8 -124 78 -225 196 -283 49
-24 69 -28 142 -28 71 0 94 4 142 27 70 32 136 97 168 163 35 72 39 190 10
267 -61 163 -264 258 -427 200z m210 -178 c105 -69 99 -227 -11 -291 -151 -89
-328 66 -252 221 48 101 169 133 263 70z"/>
<path d="M1422 1043 c-21 -8 -43 -61 -36 -88 11 -43 49 -65 116 -65 72 0 108
28 108 83 0 55 -33 77 -111 76 -35 0 -70 -3 -77 -6z"/>
</g>
</svg>
