<?xml version="1.0" standalone="no"?>
<!DOCTYPE svg PUBLIC "-//W3C//DTD SVG 20010904//EN"
 "http://www.w3.org/TR/2001/REC-SVG-20010904/DTD/svg10.dtd">
<svg version="1.0" xmlns="http://www.w3.org/2000/svg"
 width="612.000000pt" height="612.000000pt" viewBox="0 0 612.000000 612.000000"
 preserveAspectRatio="xMidYMid meet">

<g transform="translate(0.000000,612.000000) scale(0.100000,-0.100000)"
fill="#000000" stroke="none">
<path d="M2140 4751 c-376 -83 -642 -332 -756 -707 -26 -82 -28 -102 -28 -264
0 -161 2 -182 27 -261 14 -48 37 -111 50 -140 l24 -54 -53 -230 c-29 -126 -53
-242 -54 -258 0 -20 7 -31 25 -39 21 -9 64 -3 254 40 126 29 237 52 245 52 14
0 16 -46 16 -432 l0 -433 24 -58 c34 -82 72 -133 133 -179 82 -62 140 -80 276
-86 l117 -4 0 -159 c0 -130 3 -160 16 -173 25 -25 58 -19 110 22 27 21 128
100 226 175 l176 137 719 0 c447 0 735 4 762 11 152 35 279 161 311 309 8 39
10 214 8 615 l-3 560 -31 65 c-40 85 -116 160 -202 202 l-67 33 -262 5 -262 5
43 75 c138 244 410 716 417 724 13 14 49 -24 49 -51 0 -13 -28 -74 -62 -134
-53 -95 -60 -114 -52 -137 7 -20 17 -28 40 -30 38 -4 46 6 123 143 67 121 73
154 45 225 -9 22 -19 40 -23 40 -3 0 -19 12 -34 25 l-28 25 41 71 c38 64 41
73 30 99 -19 45 -98 119 -163 151 -41 21 -80 32 -127 36 l-67 6 -32 -54 c-18
-30 -182 -315 -365 -634 l-333 -580 -75 -3 -76 -3 16 58 c12 43 16 101 17 223
0 141 -4 177 -23 250 -94 346 -346 601 -697 705 -123 37 -338 44 -465 16z
m410 -113 c320 -76 574 -332 651 -654 29 -124 29 -289 -1 -410 -84 -337 -344
-589 -685 -661 -51 -11 -109 -14 -210 -10 -148 5 -247 28 -357 83 l-47 24
-205 -47 c-113 -26 -209 -43 -213 -40 -3 4 14 99 40 212 l46 204 -28 63 c-69
153 -96 307 -80 466 17 168 74 311 179 450 208 277 565 403 910 320z m1741 10
c41 -13 103 -56 118 -81 9 -13 6 -26 -15 -60 -15 -23 -28 -43 -29 -45 -2 -2
-169 93 -183 104 -8 6 51 94 62 94 7 0 28 -5 47 -12z m-70 -229 c49 -28 89
-54 87 -58 -14 -35 -645 -1121 -651 -1121 -12 0 -166 90 -173 101 -3 5 113
215 257 467 342 597 380 662 385 662 2 0 45 -23 95 -51z m-856 -1046 c-14 -33
-23 -117 -29 -268 -10 -231 -1 -234 230 -83 l159 104 75 132 75 132 285 -2
c273 -3 287 -4 331 -26 62 -30 113 -84 147 -151 l27 -56 0 -555 0 -555 -28
-57 c-36 -74 -112 -143 -180 -163 -43 -13 -159 -15 -786 -15 l-736 0 -187
-145 c-103 -80 -189 -145 -192 -145 -3 0 -6 55 -6 123 0 90 -4 128 -14 143
-13 17 -31 20 -168 24 -135 4 -159 8 -202 29 -64 32 -113 82 -145 150 l-26 56
-3 404 c-3 385 -2 403 15 396 127 -50 358 -69 506 -41 183 35 334 106 474 226
89 76 189 202 236 297 l31 63 59 0 c52 0 58 -2 52 -17z m205 -214 c0 -9 -107
-79 -121 -79 -7 0 -9 14 -5 38 3 20 5 54 6 75 l0 38 60 -33 c33 -18 60 -36 60
-39z"/>
<path d="M2236 4564 c-176 -43 -305 -177 -342 -357 -17 -81 -11 -135 18 -172
82 -104 257 -52 258 77 1 48 33 111 71 141 89 67 214 29 254 -78 32 -83 0
-152 -99 -215 -79 -50 -130 -105 -165 -179 -23 -50 -26 -70 -29 -192 l-3 -137
31 -36 c63 -71 157 -71 219 -1 29 34 31 41 32 118 0 119 12 144 87 193 91 59
138 109 177 186 66 133 68 274 3 408 -61 126 -197 228 -333 250 -77 13 -106
12 -179 -6z m258 -133 c74 -36 126 -90 165 -171 22 -46 26 -69 26 -140 0 -71
-4 -94 -26 -140 -33 -71 -79 -124 -138 -157 -109 -62 -141 -115 -141 -233 0
-87 -10 -120 -38 -120 -33 0 -42 22 -42 100 0 140 43 229 141 290 123 77 169
147 169 257 0 159 -113 272 -271 273 -79 0 -124 -17 -181 -68 -44 -39 -88
-120 -88 -162 -1 -64 -24 -89 -62 -69 -18 10 -20 18 -15 65 25 241 283 383
501 275z"/>
<path d="M2280 3299 c-117 -49 -136 -216 -32 -285 53 -36 105 -40 159 -12 63
31 86 65 91 135 3 48 0 64 -20 92 -12 19 -35 43 -50 54 -31 23 -111 32 -148
16z m106 -124 c19 -28 11 -60 -18 -76 -51 -27 -105 29 -73 77 21 33 69 33 91
-1z"/>
<path d="M3482 2854 c-28 -20 -30 -69 -3 -84 13 -6 170 -10 441 -10 271 0 428
4 441 10 27 15 25 64 -3 84 -19 14 -78 16 -438 16 -360 0 -419 -2 -438 -16z"/>
<path d="M2290 2490 c-11 -11 -20 -27 -20 -35 0 -8 9 -24 20 -35 20 -20 33
-20 1039 -20 1113 0 1051 -3 1051 55 0 58 62 55 -1051 55 -1006 0 -1019 0
-1039 -20z"/>
<path d="M2285 2126 c-19 -29 -4 -71 29 -80 11 -3 469 -6 1016 -6 780 0 1000
3 1020 13 16 8 26 23 28 40 7 61 74 57 -1049 57 l-1029 0 -15 -24z"/>
</g>
</svg>
