<svg width="1024" height="1024" viewBox="0 0 1024 1024" fill="none" xmlns="http://www.w3.org/2000/svg">
<rect width="1024" height="1024" fill="white"/>
<path d="M684.369 128V265.783C684.369 349.167 638.708 427.328 561.989 475.26L421.048 563.315C344.33 611.249 298.667 689.41 298.667 772.795V896" stroke="black" stroke-width="50" stroke-linecap="square"/>
<path d="M298.667 128V265.783C298.667 349.167 349.179 427.328 434.044 475.26L589.957 563.315C674.821 611.249 725.334 689.41 725.334 772.795V896" stroke="black" stroke-width="50" stroke-linecap="square"/>
<path d="M170.667 213.333L298.667 85.3335L426.667 213.333" stroke="black" stroke-width="50" stroke-linecap="square"/>
<path d="M554.667 213.333L682.667 85.3335L810.667 213.333" stroke="black" stroke-width="50" stroke-linecap="square"/>
<path d="M298.729 123.133V93.3818M683.509 99.45L684.436 123.975" stroke="black" stroke-width="50"/>
<path d="M347.512 928.456C347.93 946.311 338.878 973.003 315.778 983.889C309.972 986.625 306.746 983.97 299.744 984.308C293.488 984.609 291.555 986.816 285.597 984.683C260.853 975.823 249.867 949.874 249.42 930.748C248.836 905.744 269.289 892.535 297.981 908.852C324.016 892.201 346.928 903.453 347.512 928.456Z" fill="#FF542F"/>
<path fill-rule="evenodd" clip-rule="evenodd" d="M297.86 903.95C283.666 896.487 270.648 895.514 260.799 900.524C250.33 905.849 244.86 917.198 245.179 930.847C245.651 951.056 257.218 979.028 284.167 988.676C287.891 990.01 290.594 990.02 293.231 989.597C294.137 989.451 294.877 989.298 295.572 989.154C296.905 988.878 298.077 988.635 299.949 988.545C302.173 988.438 303.775 988.667 305.596 988.928C306.262 989.023 306.956 989.123 307.721 989.212C310.61 989.547 313.734 989.542 317.587 987.727C342.729 975.878 352.194 947.222 351.754 928.357C351.43 914.517 344.819 903.759 333.953 899.131C323.787 894.801 310.923 896.273 297.86 903.95ZM315.778 983.889C338.878 973.003 347.93 946.311 347.513 928.457C346.928 903.453 324.016 892.201 297.981 908.852C269.289 892.536 248.836 905.744 249.42 930.748C249.867 949.874 260.853 975.823 285.597 984.683C289.466 986.068 291.637 985.623 294.397 985.059C295.888 984.754 297.55 984.414 299.744 984.308C302.407 984.18 304.524 984.484 306.444 984.76C309.573 985.21 312.18 985.585 315.778 983.889Z" fill="#734125"/>
<path fill-rule="evenodd" clip-rule="evenodd" d="M306.344 972.568C329.443 961.682 336.608 934.99 336.191 917.135C336.069 911.906 334.97 907.279 333.071 903.382C341.683 907.419 347.229 916.317 347.513 928.457C347.93 946.311 338.878 973.003 315.778 983.889C312.18 985.585 309.573 985.21 306.444 984.76C304.524 984.484 302.407 984.18 299.744 984.308C297.55 984.414 295.888 984.754 294.397 985.059C291.637 985.623 289.466 986.068 285.597 984.683C276.547 981.442 269.337 975.916 263.81 969.273C266.433 970.873 269.288 972.251 272.389 973.361C276.379 974.79 279.41 974.272 282.856 973.684C284.556 973.394 286.356 973.086 288.423 972.987C291.018 972.861 293.353 973.147 295.56 973.417C299.31 973.876 302.689 974.29 306.344 972.568Z" fill="#ED4A27"/>
<path d="M333.434 923.762C333.146 925.827 331.24 927.267 329.175 926.979C327.111 926.691 325.671 924.784 325.959 922.72C326.247 920.655 328.154 919.215 330.218 919.503C332.282 919.791 333.722 921.698 333.434 923.762Z" fill="#C53622"/>
<path d="M343.648 934.688C343.36 936.752 341.453 938.192 339.389 937.904C337.325 937.616 335.885 935.71 336.173 933.645C336.461 931.581 338.368 930.141 340.432 930.429C342.496 930.717 343.936 932.624 343.648 934.688Z" fill="#C53622"/>
<path d="M343.43 920.394C343.214 921.942 341.784 923.022 340.236 922.806C338.688 922.59 337.608 921.16 337.824 919.612C338.04 918.064 339.47 916.984 341.018 917.2C342.566 917.416 343.646 918.846 343.43 920.394Z" fill="#C53622"/>
<path d="M339.937 947.814C339.649 949.878 337.742 951.318 335.678 951.03C333.614 950.742 332.174 948.836 332.462 946.771C332.75 944.707 334.657 943.267 336.721 943.555C338.785 943.843 340.225 945.75 339.937 947.814Z" fill="#C53622"/>
<path d="M329.722 936.888C329.434 938.953 327.528 940.393 325.463 940.105C323.399 939.817 321.959 937.91 322.247 935.846C322.535 933.781 324.442 932.341 326.506 932.629C328.57 932.917 330.01 934.824 329.722 936.888Z" fill="#C53622"/>
<path d="M333.709 962.121C333.421 964.185 331.514 965.625 329.45 965.337C327.385 965.05 325.946 963.143 326.233 961.078C326.521 959.014 328.428 957.574 330.493 957.862C332.557 958.15 333.997 960.057 333.709 962.121Z" fill="#C53622"/>
<path d="M326.126 950.681C325.838 952.746 323.931 954.186 321.867 953.898C319.802 953.61 318.363 951.703 318.65 949.639C318.938 947.574 320.845 946.134 322.91 946.422C324.974 946.71 326.414 948.617 326.126 950.681Z" fill="#C53622"/>
<path d="M326.227 970.497C326.011 972.046 324.581 973.126 323.033 972.91C321.485 972.694 320.405 971.264 320.621 969.715C320.837 968.167 322.267 967.087 323.815 967.303C325.363 967.519 326.443 968.949 326.227 970.497Z" fill="#C53622"/>
<path d="M319.151 870.223C319.151 870.223 323.344 887.509 318.929 896.921C313.608 908.265 297.54 908.981 297.54 908.981C297.54 908.981 292.675 895.72 299.104 884.19C304.05 875.32 319.151 870.223 319.151 870.223Z" fill="#7CD623"/>
<path fill-rule="evenodd" clip-rule="evenodd" d="M323.274 869.223L319.152 870.222L317.795 866.203C318.922 865.823 320.157 865.933 321.199 866.507C322.241 867.081 322.994 868.067 323.274 869.223ZM315.164 871.823C317.525 870.772 319.152 870.222 319.152 870.222C319.152 870.222 319.552 871.874 319.975 874.434C320.921 880.156 321.98 890.418 318.929 896.921C313.609 908.265 297.54 908.981 297.54 908.981C297.54 908.981 292.675 895.72 299.105 884.19C302.427 878.231 310.333 873.975 315.164 871.823ZM297.54 908.981C293.558 910.442 293.557 910.441 293.557 910.439L293.553 910.428L293.546 910.41L293.528 910.358C293.513 910.318 293.495 910.264 293.472 910.198C293.427 910.065 293.367 909.883 293.295 909.655C293.153 909.199 292.965 908.556 292.765 907.757C292.367 906.164 291.915 903.921 291.685 901.276C291.231 896.034 291.626 888.892 295.4 882.124C298.491 876.58 304.427 872.61 308.96 870.151C311.319 868.872 313.502 867.895 315.096 867.237C315.895 866.907 316.553 866.654 317.018 866.481C317.251 866.395 317.436 866.329 317.568 866.282C317.633 866.259 317.686 866.241 317.724 866.228L317.77 866.212L317.791 866.205L317.795 866.203C317.796 866.203 317.795 866.203 319.152 870.222C323.274 869.223 323.274 869.222 323.274 869.223L323.276 869.232L323.28 869.247L323.292 869.297L323.332 869.469C323.365 869.615 323.412 869.824 323.47 870.088C323.584 870.618 323.739 871.374 323.91 872.306C324.251 874.165 324.658 876.752 324.921 879.661C325.425 885.241 325.495 892.914 322.77 898.723C319.4 905.906 312.767 909.461 307.609 911.22C304.974 912.118 302.546 912.613 300.779 912.885C299.891 913.021 299.157 913.103 298.633 913.152C298.371 913.176 298.16 913.192 298.007 913.203C297.931 913.208 297.869 913.211 297.822 913.214L297.764 913.217L297.744 913.218L297.736 913.218L297.732 913.219C297.731 913.219 297.729 913.219 297.54 908.981ZM293.558 910.442L297.54 908.981L297.729 913.219C295.882 913.301 294.195 912.178 293.558 910.442Z" fill="#156319"/>
<path d="M316.088 896.985C320.05 889.88 317.718 875.428 317.718 875.428C305.941 887.663 302.977 901.257 302.304 906.166C302.304 906.166 312.125 904.091 316.088 896.985Z" fill="#6FC21C"/>
<path d="M275.404 890.196C279.482 891.17 293.003 902.675 296.793 909.838C297.11 910.436 298.741 909.5 298.472 908.977C296.311 902.154 289.416 886.049 283.872 881.195C276.569 881.041 275.175 888.661 275.404 890.196Z" fill="#943D31"/>
<path fill-rule="evenodd" clip-rule="evenodd" d="M274.419 894.321C272.736 893.919 271.465 892.535 271.209 890.823C271.038 889.68 271.206 888.32 271.469 887.173C271.761 885.9 272.285 884.381 273.166 882.897C275.01 879.789 278.477 876.838 283.962 876.953C284.959 876.974 285.917 877.346 286.667 878.003C288.51 879.617 290.239 881.938 291.77 884.35C293.339 886.821 294.864 889.649 296.251 892.481C298.966 898.025 301.28 903.843 302.454 907.499C303.326 909.733 302.079 911.562 301.696 912.047C301.124 912.77 300.432 913.255 299.876 913.556C299.332 913.851 298.496 914.201 297.487 914.263C296.519 914.322 294.247 914.094 293.044 911.822C291.521 908.944 287.678 904.693 283.383 900.861C281.298 899.001 279.24 897.358 277.505 896.146C276.636 895.539 275.891 895.07 275.296 894.743C274.758 894.447 274.483 894.346 274.426 894.325C274.414 894.32 274.412 894.32 274.419 894.321ZM298.473 908.977C298.47 908.969 298.468 908.961 298.465 908.953C298.178 908.048 297.808 906.98 297.369 905.798C296.812 904.297 296.144 902.612 295.395 900.839C292.278 893.466 287.746 884.585 283.873 881.195C276.57 881.041 275.175 888.661 275.405 890.195C278.345 890.898 286.193 897.073 291.764 903.15C292.943 904.435 294.02 905.717 294.927 906.941C295.602 907.852 296.183 908.731 296.642 909.557C296.694 909.651 296.745 909.745 296.794 909.838C297.11 910.435 298.741 909.5 298.473 908.977ZM294.392 910.141C294.463 910.391 294.563 910.648 294.698 910.913C294.59 910.702 294.5 910.483 294.429 910.258C294.417 910.219 294.404 910.181 294.392 910.141Z" fill="#633526"/>
<path d="M285.284 881.336C286.616 882.758 285.688 885.793 283.211 888.115C280.733 890.438 277.644 891.168 276.312 889.747C274.98 888.325 275.908 885.29 278.385 882.968C280.863 880.645 283.951 879.915 285.284 881.336Z" fill="#C26649"/>
<path d="M277.857 908.99C283.467 911.751 284.657 920.811 280.516 929.226C276.374 937.641 268.469 942.224 262.859 939.463C257.249 936.702 256.059 927.642 260.2 919.227C264.342 910.812 272.247 906.229 277.857 908.99Z" fill="#FF896F"/>
<path fill-rule="evenodd" clip-rule="evenodd" d="M271.362 915.744C273.162 917.245 273.403 919.92 271.903 921.719C270.925 922.89 270.286 924.127 269.93 925.45C269.321 927.713 266.994 929.053 264.732 928.445C262.469 927.836 261.128 925.509 261.737 923.246C262.427 920.681 263.662 918.353 265.388 916.284C266.888 914.485 269.563 914.243 271.362 915.744Z" fill="white"/>
<path fill-rule="evenodd" clip-rule="evenodd" d="M776.752 919.217C777.704 938.852 760.801 958.552 735.863 965.272C711.013 971.969 686.586 963.515 677.466 946.185C673.251 947.273 669.04 945.144 668.03 941.397C667.02 937.651 669.592 933.694 673.783 932.517C672.96 912.951 689.832 893.368 714.681 886.672C739.619 879.951 764.132 888.49 773.175 905.945C776.727 905.776 779.94 907.798 780.805 911.007C781.67 914.216 779.908 917.578 776.752 919.217Z" fill="#FFD12F"/>
<path fill-rule="evenodd" clip-rule="evenodd" d="M781.027 921.428C780.686 942.773 762.203 962.568 736.966 969.368C712.023 976.09 686.415 968.524 675.178 950.701C670.183 950.656 665.348 947.751 663.934 942.501C662.519 937.251 665.239 932.31 669.535 929.762C670.296 908.706 688.634 889.297 713.577 882.576C738.814 875.775 764.74 883.602 775.761 901.885C779.921 902.615 783.691 905.413 784.901 909.903C786.111 914.393 784.257 918.707 781.027 921.428ZM776.751 919.217C777.704 938.852 760.8 958.552 735.862 965.272C711.013 971.969 686.585 963.514 677.466 946.185C673.25 947.273 669.039 945.144 668.03 941.397C667.02 937.651 669.591 933.694 673.782 932.517C672.96 912.951 689.832 893.368 714.681 886.672C739.619 879.951 764.132 888.49 773.174 905.945C776.727 905.776 779.94 907.798 780.805 911.007C781.669 914.216 779.907 917.578 776.751 919.217Z" fill="#755F13"/>
<path d="M720.953 902.95C723.98 909.583 718.366 918.64 708.416 923.18C698.466 927.719 687.947 926.021 684.921 919.387C681.895 912.754 687.508 903.697 697.458 899.158C707.408 894.619 717.927 896.316 720.953 902.95Z" fill="#FFEA2F"/>
<path d="M675.297 935.916C675.977 937.407 675.18 939.231 673.517 939.989C671.855 940.748 669.955 940.154 669.275 938.663C668.595 937.172 669.392 935.349 671.055 934.59C672.717 933.832 674.617 934.426 675.297 935.916Z" fill="#FFEA2F"/>
<path fill-rule="evenodd" clip-rule="evenodd" d="M720.716 953.393C749.026 945.764 767.573 923.245 762.144 903.096C760.539 897.14 757.018 892.058 752.124 888.05C761.466 891.678 768.983 897.853 773.174 905.945C776.727 905.776 779.94 907.798 780.805 911.007C781.669 914.216 779.907 917.578 776.751 919.217C777.704 938.852 760.8 958.552 735.862 965.272C714.292 971.085 693.039 965.482 681.841 952.567C692.855 956.587 706.668 957.179 720.716 953.393Z" fill="#DEB523"/>
<path d="M761.103 928.456C759.678 930.015 757.258 930.124 755.699 928.699C754.14 927.274 754.032 924.854 755.457 923.295C756.882 921.736 759.301 921.627 760.86 923.053C762.419 924.478 762.528 926.897 761.103 928.456Z" fill="#C89616"/>
<path d="M764.411 939.722C762.986 941.281 760.567 941.39 759.008 939.965C757.449 938.54 757.34 936.12 758.765 934.561C760.19 933.002 762.61 932.894 764.169 934.319C765.728 935.744 765.836 938.163 764.411 939.722Z" fill="#C89616"/>
<path d="M771.386 929.257C770.317 930.426 768.503 930.508 767.334 929.439C766.164 928.37 766.083 926.556 767.152 925.386C768.22 924.217 770.035 924.136 771.204 925.204C772.374 926.273 772.455 928.088 771.386 929.257Z" fill="#C89616"/>
<path d="M755.379 949.603C753.954 951.162 751.535 951.271 749.976 949.846C748.417 948.421 748.308 946.001 749.733 944.442C751.158 942.883 753.577 942.774 755.137 944.2C756.696 945.625 756.804 948.044 755.379 949.603Z" fill="#C89616"/>
<path d="M752.072 936.216C750.646 937.775 748.227 937.884 746.668 936.458C745.109 935.033 745 932.614 746.425 931.055C747.851 929.496 750.27 929.387 751.829 930.812C753.388 932.238 753.497 934.657 752.072 936.216Z" fill="#C89616"/>
<path d="M742.825 955.522C740.957 957.566 737.786 957.708 735.742 955.84C733.699 953.972 733.557 950.801 735.424 948.758C737.292 946.714 740.463 946.572 742.507 948.44C744.55 950.308 744.693 953.479 742.825 955.522Z" fill="#C89616"/>
<path d="M727.176 960.642C725.751 962.201 723.332 962.309 721.773 960.884C720.213 959.459 720.105 957.04 721.53 955.481C722.955 953.922 725.374 953.813 726.933 955.238C728.493 956.663 728.601 959.083 727.176 960.642Z" fill="#C89616"/>
<path d="M738.632 941.598C737.541 942.791 735.689 942.874 734.496 941.783C733.302 940.693 733.219 938.841 734.31 937.647C735.401 936.454 737.253 936.371 738.446 937.462C739.64 938.552 739.723 940.404 738.632 941.598Z" fill="#C89616"/>
<path d="M731.401 951.149C730.522 952.111 729.029 952.178 728.068 951.299C727.106 950.419 727.039 948.927 727.918 947.965C728.797 947.004 730.289 946.937 731.251 947.816C732.213 948.695 732.28 950.187 731.401 951.149Z" fill="#C89616"/>
<path d="M712.393 962.888C711.324 964.057 709.51 964.139 708.34 963.07C707.171 962.001 707.09 960.187 708.158 959.017C709.227 957.848 711.042 957.766 712.211 958.835C713.38 959.904 713.462 961.719 712.393 962.888Z" fill="#C89616"/>
<path fill-rule="evenodd" clip-rule="evenodd" d="M701.939 906.644C702.986 908.74 702.137 911.288 700.041 912.336C698.363 913.175 697.021 914.261 695.956 915.592C694.493 917.421 691.823 917.718 689.994 916.254C688.164 914.791 687.868 912.121 689.331 910.292C691.2 907.956 693.525 906.108 696.247 904.747C698.343 903.699 700.891 904.549 701.939 906.644Z" fill="white"/>
<path fill-rule="evenodd" clip-rule="evenodd" d="M772.931 917.273C776.483 917.273 779.363 914.393 779.363 910.841C779.363 909.726 779.08 908.678 778.581 907.764C780.58 908.855 781.936 910.976 781.936 913.414C781.936 916.966 779.056 919.845 775.504 919.845C773.066 919.845 770.945 918.489 769.854 916.49C770.768 916.989 771.817 917.273 772.931 917.273Z" fill="#AE8C14"/>
</svg>
