<svg version="1.1" id="Layer_1" xmlns="http://www.w3.org/2000/svg" xmlns:xlink="http://www.w3.org/1999/xlink" x="0px" y="0px"
	 width="100%" viewBox="0 0 400 400" enable-background="new 0 0 400 400" xml:space="preserve">
<path fill="none" opacity="1.000000" stroke="#000000" stroke-linecap="round" stroke-linejoin="round" stroke-width="8.000000"
	d="
M161.000000,206.500000 
	C158.760681,211.744278 161.098526,216.940445 161.796387,221.958786 
	C162.349609,225.937057 162.743973,230.040085 163.302887,234.027634 
	C164.479858,242.424438 168.926132,246.737885 176.002090,246.820312 
	C194.828003,247.039642 213.679977,247.701767 232.496719,246.450546 
	C237.347916,246.127991 242.783096,241.382172 243.449417,236.992325 
	C244.786270,228.184830 245.917542,219.342896 246.922546,210.491211 
	C247.104019,208.892807 246.275208,207.179718 245.829865,205.139664 
	C247.481857,203.497406 249.062531,201.508728 251.032715,200.044006 
	C257.496704,195.238480 256.653198,183.415405 251.026382,177.972733 
	C246.210571,173.314545 240.777756,170.070816 233.997910,169.526077 
	C231.624863,169.335403 230.331009,168.185852 229.470810,166.011551 
	C224.149277,152.560440 212.717728,148.043091 203.503967,148.213882 
	C190.599609,148.453064 179.903244,157.182434 178.000153,168.750671 
	C174.226990,169.918961 170.256912,170.026382 166.465439,171.404938 
	C158.604019,174.263306 153.748413,179.507507 151.442322,187.483322 
	C150.457916,190.888016 151.385941,193.761093 153.034698,196.478943 
	C156.788452,202.666733 162.057892,206.098587 169.456039,207.702744 
	C184.208542,210.901520 198.789688,213.168304 214.020737,211.717743 
	C223.116043,210.851517 231.857880,209.215042 240.515015,206.548752 
	C242.160278,206.042038 244.000000,206.166672 245.750000,206.000000 
"/>
<path fill="none" opacity="1.000000" stroke="#000000" stroke-linecap="round" stroke-linejoin="round" stroke-width="9.000000"
	d="
M250.500000,271.500000 
	C249.166672,271.666687 247.833481,271.977386 246.499985,271.978760 
	C219.166672,272.007019 191.833328,272.000000 164.500000,272.000000 
	C163.000000,272.000000 161.500000,272.000000 160.000000,272.000000 
"/>
<path fill="none" opacity="1.000000" stroke="#000000" stroke-linecap="round" stroke-linejoin="round" stroke-width="3.000000"
	d="
M318.000000,262.500000 
	C313.833344,262.500000 309.666656,262.500000 305.500000,262.500000 
"/>
<path fill="none" opacity="1.000000" stroke="#000000" stroke-linecap="round" stroke-linejoin="round" stroke-width="3.000000"
	d="
M266.000000,312.500000 
	C266.000000,316.833344 266.000000,321.166656 266.000000,325.500000 
"/>
<path fill="none" opacity="1.000000" stroke="#000000" stroke-linecap="round" stroke-linejoin="round" stroke-width="5.000000"
	d="
M318.000000,275.500000 
	C314.166656,275.500000 310.333344,275.500000 306.500000,275.500000 
"/>
<path fill="none" opacity="1.000000" stroke="#000000" stroke-linecap="round" stroke-linejoin="round" stroke-width="3.000000"
	d="
M269.500000,91.000000 
	C269.500000,95.166664 269.500000,99.333336 269.500000,103.500000 
"/>
<path fill="none" opacity="1.000000" stroke="#000000" stroke-linecap="round" stroke-linejoin="round" stroke-width="3.000000"
	d="
M103.500000,138.500000 
	C99.166664,138.500000 94.833336,138.500000 90.500000,138.500000 
"/>
</svg>